# xmcd
#
# Track frame offsets: 
#        150
#        21693
#        43974
#        68591
#        90684
#        113976
#        134480
#        156113
#        177497
#        202355
#        222164
#        239982
#        260375
#        279145
#        296187
#        319250
#        329547
#        347150
#
# Disc length: 4765 seconds
#
# Revision: 0
# Processed by: cddbd v1.5.1PL0 Copyright (c) Steve Scherf et al.
# Submitted via: ExactAudioCopy v0.95b3
#
DISCID=32129b12
DTITLE=Coldplay - X and Y
DYEAR=2005
DGENRE=Other
TTITLE0=Square one
TTITLE1=What if
TTITLE2=White shadows
TTITLE3=Fix you
TTITLE4=Talk
TTITLE5=X and Y
TTITLE6=Speed of sound
TTITLE7=A message
TTITLE8=Low
TTITLE9=The hardest part
TTITLE10=Swallowed in the sea
TTITLE11=Twisted logic
TTITLE12=Til kingdom come
TTITLE13=In my place
TTITLE14=Clocks
TTITLE15=Beautiful world
TTITLE16=Trouble
TTITLE17=Don t panic
EXTD=
EXTT0=
EXTT1=
EXTT2=
EXTT3=
EXTT4=
EXTT5=
EXTT6=
EXTT7=
EXTT8=
EXTT9=
EXTT10=
EXTT11=
EXTT12=
EXTT13=
EXTT14=
EXTT15=
EXTT16=
EXTT17=
PLAYORDER=
